<svg width="200" height="202" viewBox="0 0 200 202" fill="none" xmlns="http://www.w3.org/2000/svg">
  <mask id="path-1-inside-1_380_615" fill="white">
    <path d="M199.68 49.07L199.03 48.38H197.94L194.61 47.92L191.43 47.36H190.42L187.89 47.84L184.93 48.99L182.98 50.42L181.24 50.52L179.64 49.86L177.54 48.44L177.18 48.35L173.92 47.5L171.45 46.46L169.93 46.08L168.23 45.76L165.86 44.6L151.94 45.71L146.93 41.68L144.19 35.76L142.2 34.89L141.35 32.73L137.9 28.22L134.13 27.32L132.72 26.98L131.34 23.26L125.53 19.68L125.1 15.8L122.3 14.27L120.96 10.21L122.71 4.79L121.96 2.19L116.63 0L114.76 1.9L115.59 5.39L113.64 9.94L108.03 8.74L104.61 10.2L99.89 10.29L99.81 13.6L102.15 18.47L101.25 20.66L94.9 19.31L92.69 15.13L91.29 14.72L89.05 15.93L88.68 19.62L100.7 33.45L100.66 35.5L97.62 36.74L95.52 34.1L92.59 35.85L87.21 35.59L84.91 37.6L80.79 33.64L79.61 33.69L76.72 41.52L72.38 44.43L72.15 47.49L72.06 48.68L68.05 49.91L67.21 54.62L55.33 59.35L50.32 55.07L48.23 54.57L44.98 57.38L40.14 58.07L38.86 61.06L35.77 61.9L33.61 63.83L31.7 67.59L31.6 69.53L35.26 70.18L34.37 75.06L36.25 77.03L37.71 78.56L38.68 79.57L40.12 82.8L44.21 86.85L46.54 87.16L47.51 87.29L47.99 87.35L52.55 98.99L48.79 100.4L44.82 104.14L44.54 106.91L41.23 109.31L42.01 112.83L39.65 114.02L36.52 112L35.28 109.17L33.04 110.73L33.23 113.01L31.67 114.72L29.68 114.63L25.34 114.43L21.64 116.55L18.89 116.39L16.92 119.41L13.8 118.76L9.6 121.74L2.81 127.69L2.73 130.78L0.31 136.82L3.3 137.38L9.04 142.08L9.17 145.42L10.38 146.44L9.32 150.65L14.13 154.29L11.77 156.43L9.25 156.85L7.75 157.1L7.09 156.76L5.84 156.13L3.84 157.15L2.07 158.06L0 159.13L1.28 161.43L6.02 162.61L6.38 163.5L4.57 172.22L5.37 174.32L13.48 181.48L24.33 181.22L25.24 185.24L25.43 186.09L29.22 187.46L31.22 191.67L31.58 192.43L36.67 192.47L39.47 188.07L46.22 186.13L46.67 182.88V182.87L47.67 182.14L48.06 181.86L51.7 185.77L54.09 182.83L56.27 184.28L60.85 185.07L67.75 186.25L71.15 184.41L76.63 185.33L77.03 186.32L78.13 187.39L78.48 188.15L78.73 192.46L79.36 193.9L82.51 195.44L83.55 196.1L85.53 197.35L88.55 200.66L91.19 200.48L93.12 200.5L95.28 201.12L97.62 201.74L98.97 201.75L98.43 197.41L95.5 195.95L94.2 192.79L98.15 190.94L102.12 189.08L105.13 185.75L105.86 182.78L113.81 178.51L116.69 181.43L120.86 181.8L124.36 183.73L125.63 182.8L123.41 179.97L126.88 179.5L130.3 182.71L133.13 180.96L135.9 179.69L137.01 176.57L137.77 174.45L142.8 172.48L142.31 170.19L141.87 169.47L141.63 168.09L141.46 167.11L142.01 166.09L142.91 165.37L143.5 164.59L142.98 162.98L143.07 162.33L144.56 161.65L145.59 160.76L146.28 161.12L146.76 161.21L147.28 160.68L147.34 160.62L147.32 159.44L146.68 158L146.57 157.75L145.68 156.59L145.44 156.22L144.97 155.5L144.93 155.43L144.38 154.01L144.04 152.41L143.42 151.27L142.98 152.52L141.85 152.73L140.39 151.23L139.54 150.8L138.6 150.69L137.69 150.18L136.83 149.57L135.7 147.63L134.74 147.38L133.61 147.63L132.81 147.42L132.44 147.07L131.38 145.66L130.85 141.36L131.01 140.06L130.9 138.8L130.58 138.47L130.56 138.45L129.32 137.17L129.09 136.55L130.63 132.35L128.76 130.27L129.51 128.79L136.68 126.81L148.49 126.52L152.13 128.55L152.3 128.64L157.94 124.53L158.92 124.5L165.64 124.32L171.15 121.9L172.21 120.61L172.56 120.23L173.21 119.53L173.8 119.17L174.27 118.86L177.52 118.62L178.19 118.46L178.76 118.26L179.34 117.45L179.82 116.69L180.5 116.42L181.21 115.86L182.32 115.52L183.67 115.39L184.69 114.57L185.37 113.26L185.88 111.96L186.52 111.07L186.9 110.88L188.28 110.96L188.87 110.86L189.04 110.6V110.15L188.9 109.66L188.62 109.3L188.27 109.12L187.99 108.72L187.91 108.34L188.16 107.82L188.46 107.24L188.88 106.88L189.12 106.49L189.15 106.02L188.9 104.95L188.85 104.15L188.23 103.88L187.25 103.86L186.03 103.58L185.29 103.19L184.77 102.51L184.44 101.74L183.89 100.32L183.47 99.59L183.51 98.95L182.91 98.01L181.67 97.44L180.51 96.97H180.5L179.46 95.87L178.45 94.32L177.79 92.9L177.13 91.48L176.18 90.25L175.3 88.93V87.98L175.15 86.94L173.91 86.09L173.48 85.61L173.21 84.89L173.51 83.05L173.77 81.47L173.79 81.33L174.44 78.86L174.42 77.78L174.28 76.86L173.92 75.91L173.41 75.06L172.32 73.25L171.51 71.54L171.1 70.19L171.51 69.17L172.38 68.2L173.83 67.74L174.84 68.12L175.78 68.11L176.27 67.68L176.22 67L175.64 66.34L174.91 65.58L174.76 64.53L174.92 64.02L181.05 60.15L182.58 60.14L184.17 60.33L188.11 61.68L190.55 60.87L192.79 60.67L193.81 60.23L194.31 59.91L194.14 58.64L192.84 56.12L192.54 55.55L192.36 54.8L192.75 53.74L193.99 51.07L194.96 50.73L196.94 52.39L197.75 52.69L199.48 52.85L199.99 52.19L199.68 49.07Z"/>
  </mask>
  <path d="M199.68 49.07L199.03 48.38H197.94L194.61 47.92L191.43 47.36H190.42L187.89 47.84L184.93 48.99L182.98 50.42L181.24 50.52L179.64 49.86L177.54 48.44L177.18 48.35L173.92 47.5L171.45 46.46L169.93 46.08L168.23 45.76L165.86 44.6L151.94 45.71L146.93 41.68L144.19 35.76L142.2 34.89L141.35 32.73L137.9 28.22L134.13 27.32L132.72 26.98L131.34 23.26L125.53 19.68L125.1 15.8L122.3 14.27L120.96 10.21L122.71 4.79L121.96 2.19L116.63 0L114.76 1.9L115.59 5.39L113.64 9.94L108.03 8.74L104.61 10.2L99.89 10.29L99.81 13.6L102.15 18.47L101.25 20.66L94.9 19.31L92.69 15.13L91.29 14.72L89.05 15.93L88.68 19.62L100.7 33.45L100.66 35.5L97.62 36.74L95.52 34.1L92.59 35.85L87.21 35.59L84.91 37.6L80.79 33.64L79.61 33.69L76.72 41.52L72.38 44.43L72.15 47.49L72.06 48.68L68.05 49.91L67.21 54.62L55.33 59.35L50.32 55.07L48.23 54.57L44.98 57.38L40.14 58.07L38.86 61.06L35.77 61.9L33.61 63.83L31.7 67.59L31.6 69.53L35.26 70.18L34.37 75.06L36.25 77.03L37.71 78.56L38.68 79.57L40.12 82.8L44.21 86.85L46.54 87.16L47.51 87.29L47.99 87.35L52.55 98.99L48.79 100.4L44.82 104.14L44.54 106.91L41.23 109.31L42.01 112.83L39.65 114.02L36.52 112L35.28 109.17L33.04 110.73L33.23 113.01L31.67 114.72L29.68 114.63L25.34 114.43L21.64 116.55L18.89 116.39L16.92 119.41L13.8 118.76L9.6 121.74L2.81 127.69L2.73 130.78L0.31 136.82L3.3 137.38L9.04 142.08L9.17 145.42L10.38 146.44L9.32 150.65L14.13 154.29L11.77 156.43L9.25 156.85L7.75 157.1L7.09 156.76L5.84 156.13L3.84 157.15L2.07 158.06L0 159.13L1.28 161.43L6.02 162.61L6.38 163.5L4.57 172.22L5.37 174.32L13.48 181.48L24.33 181.22L25.24 185.24L25.43 186.09L29.22 187.46L31.22 191.67L31.58 192.43L36.67 192.47L39.47 188.07L46.22 186.13L46.67 182.88V182.87L47.67 182.14L48.06 181.86L51.7 185.77L54.09 182.83L56.27 184.28L60.85 185.07L67.75 186.25L71.15 184.41L76.63 185.33L77.03 186.32L78.13 187.39L78.48 188.15L78.73 192.46L79.36 193.9L82.51 195.44L83.55 196.1L85.53 197.35L88.55 200.66L91.19 200.48L93.12 200.5L95.28 201.12L97.62 201.74L98.97 201.75L98.43 197.41L95.5 195.95L94.2 192.79L98.15 190.94L102.12 189.08L105.13 185.75L105.86 182.78L113.81 178.51L116.69 181.43L120.86 181.8L124.36 183.73L125.63 182.8L123.41 179.97L126.88 179.5L130.3 182.71L133.13 180.96L135.9 179.69L137.01 176.57L137.77 174.45L142.8 172.48L142.31 170.19L141.87 169.47L141.63 168.09L141.46 167.11L142.01 166.09L142.91 165.37L143.5 164.59L142.98 162.98L143.07 162.33L144.56 161.65L145.59 160.76L146.28 161.12L146.76 161.21L147.28 160.68L147.34 160.62L147.32 159.44L146.68 158L146.57 157.75L145.68 156.59L145.44 156.22L144.97 155.5L144.93 155.43L144.38 154.01L144.04 152.41L143.42 151.27L142.98 152.52L141.85 152.73L140.39 151.23L139.54 150.8L138.6 150.69L137.69 150.18L136.83 149.57L135.7 147.63L134.74 147.38L133.61 147.63L132.81 147.42L132.44 147.07L131.38 145.66L130.85 141.36L131.01 140.06L130.9 138.8L130.58 138.47L130.56 138.45L129.32 137.17L129.09 136.55L130.63 132.35L128.76 130.27L129.51 128.79L136.68 126.81L148.49 126.52L152.13 128.55L152.3 128.64L157.94 124.53L158.92 124.5L165.64 124.32L171.15 121.9L172.21 120.61L172.56 120.23L173.21 119.53L173.8 119.17L174.27 118.86L177.52 118.62L178.19 118.46L178.76 118.26L179.34 117.45L179.82 116.69L180.5 116.42L181.21 115.86L182.32 115.52L183.67 115.39L184.69 114.57L185.37 113.26L185.88 111.96L186.52 111.07L186.9 110.88L188.28 110.96L188.87 110.86L189.04 110.6V110.15L188.9 109.66L188.62 109.3L188.27 109.12L187.99 108.72L187.91 108.34L188.16 107.82L188.46 107.24L188.88 106.88L189.12 106.49L189.15 106.02L188.9 104.95L188.85 104.15L188.23 103.88L187.25 103.86L186.03 103.58L185.29 103.19L184.77 102.51L184.44 101.74L183.89 100.32L183.47 99.59L183.51 98.95L182.91 98.01L181.67 97.44L180.51 96.97H180.5L179.46 95.87L178.45 94.32L177.79 92.9L177.13 91.48L176.18 90.25L175.3 88.93V87.98L175.15 86.94L173.91 86.09L173.48 85.61L173.21 84.89L173.51 83.05L173.77 81.47L173.79 81.33L174.44 78.86L174.42 77.78L174.28 76.86L173.92 75.91L173.41 75.06L172.32 73.25L171.51 71.54L171.1 70.19L171.51 69.17L172.38 68.2L173.83 67.74L174.84 68.12L175.78 68.11L176.27 67.68L176.22 67L175.64 66.34L174.91 65.58L174.76 64.53L174.92 64.02L181.05 60.15L182.58 60.14L184.17 60.33L188.11 61.68L190.55 60.87L192.79 60.67L193.81 60.23L194.31 59.91L194.14 58.64L192.84 56.12L192.54 55.55L192.36 54.8L192.75 53.74L193.99 51.07L194.96 50.73L196.94 52.39L197.75 52.69L199.48 52.85L199.99 52.19L199.68 49.07Z" fill="#FAFAFA" stroke="#97999B" stroke-width="6" mask="url(#path-1-inside-1_380_615)"/>
</svg>